<?xml version="1.0" encoding="utf-8"?>
<!-- Generator: Adobe Illustrator 22.1.0, SVG Export Plug-In . SVG Version: 6.00 Build 0)  -->
<svg version="1.1" id="Layer_1" xmlns="http://www.w3.org/2000/svg" xmlns:xlink="http://www.w3.org/1999/xlink" x="0px" y="0px"
	 viewBox="0 0 245 85" style="enable-background:new 0 0 245 85;" xml:space="preserve">
<style type="text/css">
	.st0{fill:#4C4C4C;}
</style>
<g id="Line_2_">
	<polygon id="Line_1_" class="st0" points="16.5,43.5 227.6,43.5 227.6,42.5 16.5,42.5 	"/>
</g>
<g id="Outlines">
	<g id="CVR_copy">
		<g>
			<path d="M35,27.7c0.1,0,0.5,0,1.2,0c0.8,0,1.2,0,1.3,0c0.2,0,0.2,0.1,0.2,0.2s0,0.2-0.1,0.2c-0.1,0.1-0.9,0-0.9,0.5
				c0,0.1,0,0.2,0,0.3l0.5,5.4c0,0.2,0,0.3,0,0.5l3.4-5.7c0.2-0.3,0.3-0.5,0.3-0.6c0-0.5-0.6-0.3-0.6-0.6c0-0.1,0.1-0.2,0.2-0.2
				c0.1,0,0.4,0,1,0c0.5,0,0.8,0,0.9,0c0.1,0,0.2,0.1,0.2,0.2c0,0.2-0.2,0.2-0.3,0.2c-0.5,0.1-0.9,0.4-1.2,1l-4,6.7
				c-0.1,0.1-0.2,0.3-0.4,0.3c-0.3,0-0.2-0.2-0.2-0.4l-0.7-7.3c0-0.1,0-0.3-0.3-0.4s-0.6,0-0.6-0.2C34.7,27.7,34.8,27.7,35,27.7z"/>
			<path d="M43.6,30.6c0.4,0,0.7,0.2,1,0.7c0.1-0.4,0.4-0.5,0.5-0.5c0.2,0,0.3,0.1,0.3,0.3c0,0,0,0.1,0,0.2l-0.8,3
				c-0.1,0.3-0.1,0.6-0.1,0.9c0,0.4,0.2,0.5,0.3,0.5c0.5,0,0.7-0.9,0.8-1.5c0-0.2,0.1-0.2,0.2-0.2c0.1,0,0.2,0,0.2,0.2
				c0,0.1-0.1,0.4-0.2,0.7c-0.1,0.5-0.4,1.1-1.1,1.1c-0.4,0-0.8-0.2-1-0.8C43.5,35.5,43,36,42.3,36c-0.9,0-1.5-0.8-1.5-1.9
				C40.9,32.4,42.3,30.6,43.6,30.6z M42.4,35.7c0.6,0,1.3-0.9,1.4-1.2c0.1-0.1,0.7-2.5,0.7-2.6c0-0.2-0.2-1.1-0.8-1.1
				c-0.4,0-0.8,0.4-1,0.7c-0.6,0.8-0.9,2.6-0.9,3.1C41.7,35.1,41.8,35.7,42.4,35.7z"/>
			<path d="M47.3,35.2l0.9-3.4c0-0.2,0.1-0.3,0.1-0.4c0-0.4-0.9-0.1-0.9-0.4c0-0.2,0.2-0.2,1.1-0.3c0.1-0.2,0.2-0.3,0.5-0.3
				c0.2,0,0.3,0.1,0.3,0.3c0,0.1,0,0.3-0.1,0.4c0.3-0.3,0.7-0.6,1.3-0.6c0.5,0,1.2,0.2,1.2,0.8c0,0.3-0.2,0.6-0.6,0.6
				c-0.2,0-0.4-0.2-0.4-0.4c0-0.2,0.1-0.4,0.4-0.6c-0.2-0.1-0.4-0.2-0.6-0.2c-0.9,0-1.5,1.3-1.5,1.4c-0.1,0.3-0.7,2.8-0.9,3.3
				c0,0.2-0.1,0.2-0.3,0.2h-0.3c-0.2,0-0.3,0-0.3-0.2C47.2,35.5,47.3,35.3,47.3,35.2z"/>
			<path d="M53.4,31.4c0-0.2-0.6-0.1-0.8-0.2c-0.1,0-0.1-0.2,0-0.2c0.1-0.2,0.5-0.1,0.9-0.2c0.2,0,0-0.1,0.5-0.1l0,0
				c0.2,0,0.3,0,0.3,0.2c0,0.1,0,0.2-0.1,0.6c-0.1,0.6-0.1,0.1-0.3,0.8c-1,2.9-1,2.9-1,3.1c0,0.2,0.1,0.3,0.3,0.3s0.7-0.1,1.1-1.4
				c0-0.1,0.1-0.3,0.2-0.3c0.1,0,0.2,0.1,0.2,0.2c0,0.2-0.5,1.8-1.5,1.8c-0.6,0-0.9-0.4-0.9-1C52.3,34.4,53.4,31.6,53.4,31.4z
				 M54.3,28c0.2,0,0.4,0.2,0.4,0.4c0,0.3-0.3,0.6-0.6,0.6c-0.2,0-0.4-0.2-0.4-0.4C53.7,28.3,54,28,54.3,28z"/>
			<path d="M58.5,30.6c0.4,0,0.7,0.2,1,0.7c0.1-0.4,0.4-0.5,0.5-0.5c0.2,0,0.3,0.1,0.3,0.3c0,0,0,0.1,0,0.2l-0.8,3
				c-0.1,0.3-0.1,0.6-0.1,0.9c0,0.4,0.2,0.5,0.3,0.5c0.5,0,0.7-0.9,0.8-1.5c0-0.2,0.1-0.2,0.2-0.2c0.1,0,0.2,0,0.2,0.2
				c0,0.1-0.1,0.4-0.2,0.7c-0.1,0.5-0.4,1.1-1.1,1.1c-0.4,0-0.8-0.2-1-0.8c-0.3,0.4-0.8,0.8-1.5,0.8c-0.9,0-1.5-0.8-1.5-1.9
				C55.8,32.4,57.1,30.6,58.5,30.6z M57.2,35.7c0.6,0,1.3-0.9,1.4-1.2c0.1-0.1,0.7-2.5,0.7-2.6c0-0.2-0.2-1.1-0.8-1.1
				c-0.4,0-0.8,0.4-1,0.7c-0.6,0.8-0.9,2.6-0.9,3.1C56.6,35.1,56.7,35.7,57.2,35.7z"/>
			<path d="M62,30.7c0.1,0,0.2,0,0.4,0s0.5,0,0.7,0c0.1-0.4,0.3-1.2,0.4-1.7c0.1-0.3,0.1-0.3,0.3-0.3H64c0.1,0,0.3,0,0.3,0.2
				c0,0.1-0.3,1.5-0.5,1.9h1c0.1,0,0.3,0,0.3,0.2s-0.2,0.2-0.4,0.2h-0.2c-0.2,0-0.5,0-0.7,0c0,0.2-0.1,0.3-0.1,0.5L63,34.6
				c-0.1,0.3-0.1,0.5-0.1,0.8c0,0.2,0,0.5,0.3,0.5c0.8,0,1.4-1.4,1.4-1.5c0.1-0.1,0.1-0.2,0.2-0.2s0.2,0,0.2,0.1
				c0,0.2-0.7,1.8-1.8,1.8c-0.6,0-1-0.5-1-1.1c0-0.2,0-0.4,0.1-0.5l0.8-3.3h-1c-0.1,0-0.3,0-0.3-0.2C61.7,30.7,61.8,30.7,62,30.7z"
				/>
			<path d="M67.2,31.4c0-0.2-0.6-0.1-0.8-0.2c-0.1,0-0.1-0.2,0-0.2c0.1-0.2,0.5-0.1,0.9-0.2c0.2,0,0-0.1,0.5-0.1l0,0
				c0.2,0,0.3,0,0.3,0.2c0,0.1,0,0.2-0.1,0.6c-0.1,0.6-0.1,0.1-0.3,0.8c-1,2.9-1,2.9-1,3.1c0,0.2,0.1,0.3,0.3,0.3
				c0.2,0,0.7-0.1,1.1-1.4c0-0.1,0.1-0.3,0.2-0.3s0.2,0.1,0.2,0.2c0,0.2-0.5,1.8-1.5,1.8c-0.6,0-0.9-0.4-0.9-1
				C66.1,34.4,67.2,31.6,67.2,31.4z M68.1,28c0.2,0,0.4,0.2,0.4,0.4c0,0.3-0.3,0.6-0.6,0.6c-0.2,0-0.4-0.2-0.4-0.4
				C67.5,28.3,67.8,28,68.1,28z"/>
			<path d="M72.6,30.6c1.1,0,1.8,0.8,1.8,2c0,1.7-1.5,3.5-3,3.5c-1,0-1.8-0.8-1.8-2C69.6,32.2,71.1,30.6,72.6,30.6z M71.3,35.7
				c0.2,0,0.7-0.1,1.2-0.7c0.8-0.9,1-2.6,1-3c0-0.8-0.4-1.2-0.9-1.2c-0.2,0-0.7,0.1-1.2,0.7c-0.6,0.7-1,2.3-1,3S70.8,35.7,71.3,35.7
				z"/>
			<path d="M76,35.3l0.9-3.7c0-0.1,0-0.2,0-0.2c0-0.4-0.9-0.1-0.9-0.4c0-0.2,0.2-0.3,1.1-0.3c0.1-0.1,0.1-0.1,0.3-0.1h0.1
				c0.2,0,0.3,0,0.3,0.2c0,0.1,0,0.1-0.1,0.5c0.4-0.4,0.9-0.8,1.6-0.8l0,0c0.5,0,1.2,0.3,1.2,1.3c0,1.1-0.9,2.9-0.9,3.6
				c0,0.2,0.1,0.3,0.3,0.3c0.8,0,1.1-1.6,1.2-1.7h0.1c0.1,0,0.2,0.1,0.2,0.2c0,0.3-0.5,1.8-1.5,1.8c-0.6,0-0.9-0.4-0.9-1
				s0.9-2.4,0.9-3.4c0-0.7-0.3-0.8-0.6-0.8c-1,0-1.6,1.2-1.8,1.5c0,0.1,0,0-0.8,3c0,0.1-0.1,0.6-0.5,0.6c-0.2,0-0.3-0.1-0.3-0.3
				C75.9,35.6,75.9,35.4,76,35.3z"/>
			<path d="M86.9,27c0.1,0,0.2-0.1,0.3-0.1c0.1,0,0.1,0,0.1,0.1c0,0.3-2.1,1.3-3.3,5.7c-0.2,0.9-0.5,2-0.5,3.1
				c0,1.9,0.7,2.7,0.8,2.9c0,0.1,0,0.2-0.1,0.2c-0.2,0-1.3-1.4-1.3-3.5C83,32.7,84.2,29,86.9,27z"/>
			<path d="M86.7,34.1c0.3,0,0.4,0.2,0.4,0.4c0,0.1-0.1,0.6-0.6,0.6c0.2,0.5,0.7,0.7,1.2,0.7c1.1,0,1.5-0.8,1.5-1.3
				c0-0.8-0.9-0.8-1.4-1C87.4,33.3,87,33,87,32.3c0-0.5,0.4-1.8,1.9-1.8c0.7,0,1.3,0.4,1.3,1c0,0.5-0.3,0.6-0.5,0.6
				s-0.3-0.1-0.3-0.3c0-0.2,0.1-0.4,0.5-0.5c-0.1-0.5-0.6-0.6-0.9-0.6c-0.8,0-1.2,0.7-1.2,1.1c0,0.6,0.6,0.6,0.7,0.7
				c0.4,0.1,1.5,0.3,1.5,1.4c0,0.6-0.4,2-2.2,2c-0.9,0-1.6-0.5-1.6-1.2C86.1,34.3,86.4,34.1,86.7,34.1z"/>
			<path d="M90.8,37.1c0.9-1.3,1.5-2.8,1.9-4.3c0.2-0.9,0.4-1.9,0.4-2.9c0-0.8-0.1-1.7-0.5-2.4c0-0.1-0.1-0.2-0.2-0.3
				c0-0.1-0.1-0.1-0.1-0.2s0-0.1,0-0.2c0,0,0,0,0.1,0s0.1,0.1,0.2,0.1c0.1,0.2,0.3,0.3,0.4,0.5c0.5,0.9,0.7,1.9,0.7,2.9
				c0,0.8-0.1,1.6-0.3,2.3c-0.6,2.5-1.9,4.7-3.7,6c-0.1,0-0.1,0.1-0.2,0.1s-0.1,0-0.1-0.1C89.4,38.5,89.9,38.4,90.8,37.1z"/>
			<path d="M104.6,27.4c0.4,0,1.3,0.1,1.8,1c0.9-1,0.9-1,1-1c0,0,0.1,0,0.1,0.1s-0.6,2.3-0.7,3c0,0.2-0.1,0.3-0.2,0.3
				c0,0-0.2,0-0.2-0.2c0-0.1,0-0.3,0-0.7c0-1.1-0.5-2.2-1.7-2.2s-2.4,0.9-3,2c-0.6,1-1.1,2.7-1.1,3.6c0,1.8,1.2,2.4,2,2.4
				c1.2,0,2.5-1,3-2.6c0-0.1,0.1-0.3,0.2-0.3s0.3,0,0.3,0.1c0,0.6-1.3,3.1-3.6,3.1c-1.8,0-2.9-1.3-2.9-3.2
				C99.6,30.1,102.1,27.4,104.6,27.4z"/>
			<path d="M109.1,27.7c0.1,0,0.5,0,1.2,0c0.8,0,1.2,0,1.3,0c0.2,0,0.2,0.1,0.2,0.2s0,0.2-0.1,0.2c-0.1,0.1-0.9,0-0.9,0.5
				c0,0.1,0,0.2,0,0.3l0.5,5.4c0,0.2,0,0.3,0,0.5l3.4-5.7c0.2-0.3,0.3-0.5,0.3-0.6c0-0.5-0.6-0.3-0.6-0.6c0-0.1,0.1-0.2,0.2-0.2
				s0.4,0,1,0c0.5,0,0.8,0,0.9,0s0.2,0.1,0.2,0.2c0,0.2-0.2,0.2-0.3,0.2c-0.5,0.1-0.9,0.4-1.2,1l-4,6.7c-0.1,0.1-0.2,0.3-0.4,0.3
				c-0.3,0-0.2-0.2-0.2-0.4l-0.7-7.3c0-0.1,0-0.3-0.3-0.4s-0.6,0-0.6-0.2C108.9,27.7,108.9,27.7,109.1,27.7z"/>
			<path d="M116.4,35.5L116.4,35.5c0.8,0,0.8-0.3,0.9-0.6l1.6-6.2c0-0.2,0.1-0.3,0.1-0.3c0-0.2-0.1-0.2-0.7-0.2l0,0
				c-0.1,0-0.3,0-0.3-0.2s0.1-0.2,0.3-0.2h3c2,0,2.6,1.1,2.6,1.8c0,0.9-0.8,1.9-2.5,2.4c0.7,0.3,1,0.9,1,1.4c0,0.3-0.2,1.4-0.2,1.9
				c0,0.4,0.1,0.7,0.4,0.7c0.2,0,0.6-0.1,0.9-0.9c0-0.1,0.1-0.3,0.3-0.3c0.1,0,0.2,0,0.2,0.2s-0.4,1.4-1.4,1.4
				c-0.6,0-1.5-0.3-1.5-1.3c0-0.5,0.4-1.4,0.4-1.9s-0.2-1-1.1-1H119c0,0-0.8,3.2-0.8,3.3c0,0.2,0.2,0.2,0.5,0.2h0.1
				c0.2,0,0.4,0,0.4,0.1l0,0c0,0.1-0.1,0.2-0.3,0.2c-0.2,0-0.5,0-1.4,0c-0.8,0-1.2,0-1.3,0c-0.1,0-0.2,0-0.2-0.2
				C116,35.5,116.2,35.5,116.4,35.5z M120.2,31.6c2,0,2.4-1.2,2.5-1.8c0-0.2,0.1-0.4,0.1-0.6c0-1.1-1.1-1.1-1.7-1.1h-0.6
				c-0.5,0-0.6,0.1-0.6,0.4c-0.3,1-0.8,3-0.8,3.1H120.2z"/>
			<path d="M129.5,33c0,0,0.1,0,0.2,0h2.4c0.1,0,0.3,0,0.3,0.2c0,0,0,0.4-0.2,0.5c-0.1,0-0.1,0-0.2,0h-2.4c-0.1,0-0.3,0-0.3-0.2
				C129.3,33.4,129.4,33,129.5,33z"/>
			<path d="M138.4,35.5c0.5,0,0.4-0.2,0.7-1l1.5-5.8c0-0.2,0.1-0.3,0.1-0.3c0-0.2-0.3-0.2-0.5-0.2s-0.5,0-0.5-0.2
				c0-0.1,0.1-0.2,0.2-0.2c0.1,0,0.6,0,1.4,0c0.9,0,1.2,0,1.4,0s0.2,0.1,0.2,0.2c0,0.2-0.2,0.2-0.4,0.2h-0.1c-0.7,0-0.7,0.2-1,1.3
				l-0.5,2.1h3.3c0,0,0.8-3,0.8-3.2s-0.3-0.2-0.5-0.2h-0.1c-0.1,0-0.3,0-0.3,0c-0.1,0-0.1-0.2,0-0.2c0-0.1,0.1-0.1,0.2-0.1
				c0.1,0,0.6,0,1.4,0c0.9,0,1.2,0,1.4,0c0.1,0,0.2,0,0.2,0.2c0,0.3-0.3,0.2-0.8,0.2s-0.5,0.2-0.7,1l-1.5,5.8c0,0.2-0.1,0.3-0.1,0.3
				c0,0.4,1,0,1,0.4c0,0.1,0,0.2-0.2,0.2c-0.1,0-0.6,0-1.4,0c-0.9,0-1.2,0-1.4,0s-0.2-0.1-0.2-0.2v-0.1c0.1-0.1,0.2-0.1,0.3-0.1
				c0.8,0,0.8-0.1,1-0.7c0.6-2.4,0.7-2.7,0.7-3h-3.3l-0.8,3.3c0,0.1,0,0.1,0,0.2c0,0.2,0.2,0.2,0.5,0.2h0.2c0.1,0,0.2,0,0.3,0
				c0.1,0.1,0.1,0.2,0,0.2c0,0.1-0.1,0.1-0.2,0.1c-0.1,0-0.6,0-1.4,0c-0.9,0-1.2,0-1.3,0s-0.2,0-0.2-0.2
				C137.6,35.4,137.9,35.5,138.4,35.5z"/>
			<path d="M149.6,30.6c1.1,0,1.8,0.8,1.8,2c0,1.7-1.5,3.5-3,3.5c-1,0-1.8-0.8-1.8-2C146.5,32.2,148.1,30.6,149.6,30.6z M148.3,35.7
				c0.2,0,0.7-0.1,1.2-0.7c0.8-0.9,1-2.6,1-3c0-0.8-0.4-1.2-0.9-1.2c-0.2,0-0.7,0.1-1.2,0.7c-0.6,0.7-1,2.3-1,3
				C147.4,35.2,147.7,35.7,148.3,35.7z"/>
			<path d="M152.6,34.3l1.4-5.6c0-0.2,0.1-0.3,0.1-0.4c0-0.4-0.9-0.1-0.9-0.4c0-0.2,0.2-0.2,0.4-0.2c0.4,0,1.1-0.1,1.2-0.1
				c0.1,0,0.2,0,0.2,0.2c0,0.1-0.4,1.6-0.4,1.7l-1.3,5.2c-0.1,0.3-0.1,0.5-0.1,0.7c0,0.4,0.1,0.5,0.3,0.5c0.5,0,0.7-1.1,0.8-1.5
				c0-0.2,0.1-0.2,0.2-0.2c0.1,0,0.2,0,0.2,0.1c0,0.2-0.2,0.7-0.3,1c-0.1,0.4-0.4,0.9-1,0.9s-1-0.5-1-1.1
				C152.5,34.7,152.5,34.4,152.6,34.3z"/>
			<path d="M158.4,30.6c0.6,0,0.9,0.4,1,0.7c0.3-1.1,0.7-2.7,0.7-3c0-0.4-0.9,0-0.9-0.4c0-0.2,0.3-0.2,0.4-0.2
				c0.4,0,1.2-0.1,1.2-0.1c0.1,0,0.2,0,0.2,0.2c0,0.1,0,0.2,0,0.2l-1.6,6.3c-0.2,0.6-0.2,0.8-0.2,0.9c0,0.4,0.2,0.5,0.3,0.5
				c0.5,0,0.7-1.2,0.8-1.5c0-0.1,0.1-0.2,0.2-0.2c0.1,0,0.2,0.1,0.2,0.2c0,0.1,0,0.1,0,0.2c-0.2,0.9-0.5,1.7-1.2,1.7
				c-0.4,0-0.8-0.2-1-0.8c-0.3,0.4-0.8,0.8-1.5,0.8c-0.9,0-1.5-0.8-1.5-1.9C155.7,32.4,157.1,30.6,158.4,30.6z M157.2,35.7
				c0.6,0,1.3-0.9,1.4-1.2c0.1-0.1,0.7-2.5,0.7-2.6c0-0.2-0.2-1.1-0.8-1.1c-0.4,0-0.8,0.4-1,0.7c-0.6,0.8-0.9,2.6-0.9,3.1
				C156.5,35.1,156.6,35.7,157.2,35.7z"/>
			<path d="M162.1,33l1.1-4.4c0-0.1,0.1-0.2,0.1-0.3c0-0.2-0.2-0.2-0.4-0.2l0,0c-0.2,0-0.4,0-0.4-0.2s0.3-0.2,0.4-0.2
				c0.4,0,1.2-0.1,1.2-0.1c0.1,0,0.2,0.1,0.2,0.2s0,0.2-0.1,0.3l-0.8,3.2c0.3-0.3,0.8-0.6,1.3-0.6c0.9,0,1.5,0.8,1.5,1.9
				c0,1.7-1.4,3.6-2.8,3.6c-0.8,0-1.4-0.8-1.4-1.8C161.9,33.8,162,33.4,162.1,33z M163.3,35.7c0.4,0,0.8-0.3,1-0.7
				c0.6-0.8,0.9-2.6,0.9-3.1c0-0.7-0.3-1.1-0.7-1.1c-0.7,0-1.3,0.9-1.4,1.2c0,0-0.5,1.8-0.5,2.6C162.6,35,162.7,35.7,163.3,35.7z"/>
			<path d="M169.5,30.6c0.4,0,0.7,0.2,1,0.7c0.1-0.4,0.4-0.5,0.5-0.5c0.2,0,0.3,0.1,0.3,0.3c0,0,0,0.1,0,0.2l-0.8,3
				c-0.1,0.3-0.1,0.6-0.1,0.9c0,0.4,0.2,0.5,0.3,0.5c0.5,0,0.7-0.9,0.8-1.5c0-0.2,0.1-0.2,0.2-0.2c0.1,0,0.2,0,0.2,0.2
				c0,0.1-0.1,0.4-0.2,0.7c-0.1,0.5-0.4,1.1-1.1,1.1c-0.4,0-0.8-0.2-1-0.8c-0.3,0.4-0.8,0.8-1.5,0.8c-0.9,0-1.5-0.8-1.5-1.9
				C166.7,32.4,168.1,30.6,169.5,30.6z M168.2,35.7c0.6,0,1.3-0.9,1.4-1.2c0.1-0.1,0.7-2.5,0.7-2.6c0-0.2-0.2-1.1-0.8-1.1
				c-0.4,0-0.8,0.4-1,0.7c-0.6,0.8-0.9,2.6-0.9,3.1C167.5,35.1,167.7,35.7,168.2,35.7z"/>
			<path d="M175.9,30.6c0.7,0,1.3,0.4,1.3,1c0,0.5-0.4,0.7-0.6,0.7c-0.2,0-0.4-0.2-0.4-0.4c0-0.1,0.1-0.5,0.6-0.6
				c-0.2-0.4-0.6-0.5-0.9-0.5c-1.5,0-2.2,2.7-2.2,3.6c0,0.6,0.3,1.2,0.9,1.2c0.9,0,1.6-0.5,2.1-1.1c0.1-0.1,0.2-0.2,0.2-0.2
				c0.1,0,0.2,0.2,0.2,0.2c0,0.2-1.1,1.4-2.5,1.4c-1.1,0-1.8-0.8-1.8-2C172.9,32.3,174.4,30.6,175.9,30.6z"/>
			<path d="M178.5,33.7l1.3-5.1c0-0.2,0.1-0.3,0.1-0.4c0-0.4-0.9,0-0.9-0.4c0-0.2,0.3-0.2,0.4-0.2c0.4,0,1.2-0.1,1.2-0.1
				c0.1,0,0.2,0.1,0.2,0.2s-0.1,0.3-0.1,0.5l-1.1,4.6c1.1-0.6,1.7-2.2,2.9-2.2c0.5,0,0.8,0.3,0.8,0.7c0,0.4-0.3,0.7-0.6,0.7
				c-0.2,0-0.4-0.1-0.4-0.4c0-0.1,0-0.5,0.6-0.6c-0.1-0.1-0.2-0.2-0.3-0.2c-0.9,0-1.5,1.3-2.6,2c0.9,0.1,1.6,0.5,1.6,1.2
				c0,0.3-0.2,0.6-0.2,1.1c0,0.4,0.2,0.5,0.3,0.5c0.6,0,0.8-0.9,0.9-1.4c0-0.1,0.1-0.3,0.2-0.3c0.1,0,0.2,0,0.2,0.2
				c0,0.1,0,0.2-0.1,0.3c-0.2,0.8-0.6,1.5-1.3,1.5c-0.6,0-1-0.5-1-1.2c0-0.4,0.1-0.5,0.1-0.7s-0.1-0.9-1.2-1
				c-0.6,2.5-0.6,2.9-1.1,2.9c-0.2,0-0.3-0.1-0.3-0.3C178,35.5,178.3,34.5,178.5,33.7z"/>
			<path d="M193.7,27.4c0.4,0,1.3,0.1,1.8,1c0.9-1,0.9-1,1-1c0,0,0.1,0,0.1,0.1s-0.6,2.3-0.7,3c0,0.2-0.1,0.3-0.2,0.3
				c0,0-0.2,0-0.2-0.2c0-0.1,0-0.3,0-0.7c0-1.1-0.5-2.2-1.7-2.2s-2.4,0.9-3,2c-0.6,1-1.1,2.7-1.1,3.6c0,1.8,1.2,2.4,2,2.4
				c1.2,0,2.5-1,3-2.6c0-0.1,0.1-0.3,0.2-0.3c0.1,0,0.3,0,0.3,0.1c0,0.6-1.3,3.1-3.6,3.1c-1.8,0-2.9-1.3-2.9-3.2
				C188.7,30.1,191.3,27.4,193.7,27.4z"/>
			<path d="M197.6,27.7c0.1,0,0.5,0,1.2,0c0.8,0,1.2,0,1.3,0c0.2,0,0.2,0.1,0.2,0.2s0,0.2-0.1,0.2c-0.1,0.1-0.9,0-0.9,0.5
				c0,0.1,0,0.2,0,0.3l0.5,5.4c0,0.2,0,0.3,0,0.5l3.4-5.7c0.2-0.3,0.3-0.5,0.3-0.6c0-0.5-0.6-0.3-0.6-0.6c0-0.1,0.1-0.2,0.2-0.2
				c0.1,0,0.4,0,1,0c0.5,0,0.8,0,0.9,0c0.1,0,0.2,0.1,0.2,0.2c0,0.2-0.2,0.2-0.3,0.2c-0.5,0.1-0.9,0.4-1.2,1l-4,6.7
				c-0.1,0.1-0.2,0.3-0.4,0.3c-0.3,0-0.2-0.2-0.2-0.4l-0.7-7.3c0-0.1,0-0.3-0.3-0.4s-0.6,0-0.6-0.2
				C197.4,27.7,197.5,27.7,197.6,27.7z"/>
			<path d="M205,35.5L205,35.5c0.8,0,0.8-0.3,0.9-0.6l1.6-6.2c0-0.2,0.1-0.3,0.1-0.3c0-0.2-0.1-0.2-0.7-0.2l0,0
				c-0.1,0-0.3,0-0.3-0.2s0.1-0.2,0.3-0.2h3c2,0,2.6,1.1,2.6,1.8c0,0.9-0.8,1.9-2.5,2.4c0.7,0.3,1,0.9,1,1.4c0,0.3-0.2,1.4-0.2,1.9
				c0,0.4,0.1,0.7,0.4,0.7c0.2,0,0.6-0.1,0.9-0.9c0-0.1,0.1-0.3,0.3-0.3c0.1,0,0.2,0,0.2,0.2s-0.4,1.4-1.4,1.4
				c-0.6,0-1.5-0.3-1.5-1.3c0-0.5,0.4-1.4,0.4-1.9s-0.2-1-1.1-1h-1.3c0,0-0.8,3.2-0.8,3.3c0,0.2,0.2,0.2,0.5,0.2h0.1
				c0.2,0,0.4,0,0.4,0.1l0,0c0,0.1-0.1,0.2-0.3,0.2s-0.5,0-1.4,0c-0.8,0-1.2,0-1.3,0s-0.2,0-0.2-0.2C204.6,35.5,204.8,35.5,205,35.5
				z M208.7,31.6c2,0,2.4-1.2,2.5-1.8c0-0.2,0.1-0.4,0.1-0.6c0-1.1-1.1-1.1-1.7-1.1H209c-0.5,0-0.6,0.1-0.6,0.4
				c-0.3,1-0.8,3-0.8,3.1H208.7z"/>
			<path d="M85.9,56.5c0.5,0,0.4-0.2,0.7-1l1.5-5.8c0-0.2,0.1-0.3,0.1-0.3c0-0.2-0.3-0.2-0.5-0.2s-0.5,0-0.5-0.2
				c0-0.1,0.1-0.2,0.2-0.2s0.6,0,1.4,0c0.9,0,1.2,0,1.4,0c0.2,0,0.2,0.1,0.2,0.2c0,0.2-0.2,0.2-0.4,0.2h-0.1c-0.7,0-0.7,0.2-1,1.3
				l-0.5,2.1h3.3c0,0,0.8-3,0.8-3.2s-0.3-0.2-0.5-0.2h-0.1c-0.1,0-0.3,0-0.3,0c-0.1,0-0.1-0.2,0-0.2c0-0.1,0.1-0.1,0.2-0.1
				s0.6,0,1.4,0c0.9,0,1.2,0,1.4,0c0.1,0,0.2,0,0.2,0.2c0,0.3-0.3,0.2-0.8,0.2s-0.5,0.2-0.7,1l-1.5,5.8c0,0.2-0.1,0.3-0.1,0.3
				c0,0.4,1,0,1,0.4c0,0.1,0,0.2-0.2,0.2c-0.1,0-0.6,0-1.4,0c-0.9,0-1.2,0-1.4,0c-0.2,0-0.2-0.1-0.2-0.2v-0.1
				c0.1-0.1,0.2-0.1,0.3-0.1c0.8,0,0.8-0.1,1-0.7c0.6-2.4,0.7-2.7,0.7-3h-3.3l-0.8,3.3c0,0.1,0,0.1,0,0.2c0,0.2,0.2,0.2,0.5,0.2H88
				c0.1,0,0.2,0,0.3,0c0.1,0.1,0.1,0.2,0,0.2c0,0.1-0.1,0.1-0.2,0.1s-0.6,0-1.4,0c-0.9,0-1.2,0-1.3,0c-0.1,0-0.2,0-0.2-0.2
				C85.1,56.4,85.4,56.5,85.9,56.5z"/>
			<path d="M97.4,51.6c1.1,0,1.8,0.8,1.8,2c0,1.7-1.5,3.5-3,3.5c-1,0-1.8-0.8-1.8-2C94.3,53.2,95.9,51.6,97.4,51.6z M96.1,56.7
				c0.2,0,0.7-0.1,1.2-0.7c0.8-0.9,1-2.6,1-3c0-0.8-0.4-1.2-0.9-1.2c-0.2,0-0.7,0.1-1.2,0.7c-0.6,0.7-1,2.3-1,3S95.5,56.7,96.1,56.7
				z"/>
			<path d="M100.4,55.3l1.4-5.6c0-0.2,0.1-0.3,0.1-0.4c0-0.4-0.9-0.1-0.9-0.4c0-0.2,0.2-0.2,0.4-0.2c0.4,0,1.1-0.1,1.2-0.1
				s0.2,0,0.2,0.2c0,0.1-0.4,1.6-0.4,1.7l-1.3,5.2c-0.1,0.3-0.1,0.5-0.1,0.7c0,0.4,0.1,0.5,0.3,0.5c0.5,0,0.7-1.1,0.8-1.5
				c0-0.2,0.1-0.2,0.2-0.2s0.2,0,0.2,0.1c0,0.2-0.2,0.7-0.3,1c-0.1,0.4-0.4,0.9-1,0.9s-1-0.5-1-1.1
				C100.3,55.7,100.3,55.4,100.4,55.3z"/>
			<path d="M106.2,51.6c0.6,0,0.9,0.4,1,0.7c0.3-1.1,0.7-2.7,0.7-3c0-0.4-0.9,0-0.9-0.4c0-0.2,0.3-0.2,0.4-0.2
				c0.4,0,1.2-0.1,1.2-0.1c0.1,0,0.2,0,0.2,0.2c0,0.1,0,0.2,0,0.2l-1.6,6.3c-0.2,0.6-0.2,0.8-0.2,0.9c0,0.4,0.2,0.5,0.3,0.5
				c0.5,0,0.7-1.2,0.8-1.5c0-0.1,0.1-0.2,0.2-0.2s0.2,0.1,0.2,0.2c0,0.1,0,0.1,0,0.2c-0.2,0.9-0.5,1.7-1.2,1.7c-0.4,0-0.8-0.2-1-0.8
				c-0.3,0.4-0.8,0.8-1.5,0.8c-0.9,0-1.5-0.8-1.5-1.9C103.5,53.4,104.9,51.6,106.2,51.6z M105,56.7c0.6,0,1.3-0.9,1.4-1.2
				c0.1-0.1,0.7-2.5,0.7-2.6c0-0.2-0.2-1.1-0.8-1.1c-0.4,0-0.8,0.4-1,0.7c-0.6,0.8-0.9,2.6-0.9,3.1C104.3,56.1,104.4,56.7,105,56.7z
				"/>
			<path d="M109.9,54l1.1-4.4c0-0.1,0.1-0.2,0.1-0.3c0-0.2-0.2-0.2-0.4-0.2l0,0c-0.2,0-0.4,0-0.4-0.2s0.3-0.2,0.4-0.2
				c0.4,0,1.2-0.1,1.2-0.1c0.1,0,0.2,0.1,0.2,0.2c0,0.1,0,0.2-0.1,0.3l-0.8,3.2c0.3-0.3,0.8-0.6,1.3-0.6c0.9,0,1.5,0.8,1.5,1.9
				c0,1.7-1.4,3.6-2.8,3.6c-0.8,0-1.4-0.8-1.4-1.8C109.7,54.8,109.8,54.4,109.9,54z M111.1,56.7c0.4,0,0.8-0.3,1-0.7
				c0.6-0.8,0.9-2.6,0.9-3.1c0-0.7-0.3-1.1-0.7-1.1c-0.7,0-1.3,0.9-1.4,1.2c0,0-0.5,1.8-0.5,2.6C110.4,56,110.5,56.7,111.1,56.7z"/>
			<path d="M117.3,51.6c0.4,0,0.7,0.2,1,0.7c0.1-0.4,0.4-0.5,0.5-0.5c0.2,0,0.3,0.1,0.3,0.3c0,0,0,0.1,0,0.2l-0.8,3
				c-0.1,0.3-0.1,0.6-0.1,0.9c0,0.4,0.2,0.5,0.3,0.5c0.5,0,0.7-0.9,0.8-1.5c0-0.2,0.1-0.2,0.2-0.2s0.2,0,0.2,0.2
				c0,0.1-0.1,0.4-0.2,0.7c-0.1,0.5-0.4,1.1-1.1,1.1c-0.4,0-0.8-0.2-1-0.8c-0.3,0.4-0.8,0.8-1.5,0.8c-0.9,0-1.5-0.8-1.5-1.9
				C114.5,53.4,115.9,51.6,117.3,51.6z M116,56.7c0.6,0,1.3-0.9,1.4-1.2c0.1-0.1,0.7-2.5,0.7-2.6c0-0.2-0.2-1.1-0.8-1.1
				c-0.4,0-0.8,0.4-1,0.7c-0.6,0.8-0.9,2.6-0.9,3.1C115.3,56.1,115.5,56.7,116,56.7z"/>
			<path d="M123.7,51.6c0.7,0,1.3,0.4,1.3,1c0,0.5-0.4,0.7-0.6,0.7s-0.4-0.2-0.4-0.4c0-0.1,0.1-0.5,0.6-0.6
				c-0.2-0.4-0.6-0.5-0.9-0.5c-1.5,0-2.2,2.7-2.2,3.6c0,0.6,0.3,1.2,0.9,1.2c0.9,0,1.6-0.5,2.1-1.1c0.1-0.1,0.2-0.2,0.2-0.2
				c0.1,0,0.2,0.2,0.2,0.2c0,0.2-1.1,1.4-2.5,1.4c-1.1,0-1.8-0.8-1.8-2C120.7,53.3,122.2,51.6,123.7,51.6z"/>
			<path d="M126.3,54.7l1.3-5.1c0-0.2,0.1-0.3,0.1-0.4c0-0.4-0.9,0-0.9-0.4c0-0.2,0.3-0.2,0.4-0.2c0.4,0,1.2-0.1,1.2-0.1
				c0.1,0,0.2,0.1,0.2,0.2c0,0.1-0.1,0.3-0.1,0.5l-1.1,4.6c1.1-0.6,1.7-2.2,2.9-2.2c0.5,0,0.8,0.3,0.8,0.7s-0.3,0.7-0.6,0.7
				c-0.2,0-0.4-0.1-0.4-0.4c0-0.1,0-0.5,0.6-0.6c-0.1-0.1-0.2-0.2-0.3-0.2c-0.9,0-1.5,1.3-2.6,2c0.9,0.1,1.6,0.5,1.6,1.2
				c0,0.3-0.2,0.6-0.2,1.1c0,0.4,0.2,0.5,0.3,0.5c0.6,0,0.8-0.9,0.9-1.4c0-0.1,0.1-0.3,0.2-0.3c0.1,0,0.2,0,0.2,0.2
				c0,0.1,0,0.2-0.1,0.3c-0.2,0.8-0.6,1.5-1.3,1.5c-0.6,0-1-0.5-1-1.2c0-0.4,0.1-0.5,0.1-0.7s-0.1-0.9-1.2-1
				c-0.6,2.5-0.6,2.9-1.1,2.9c-0.2,0-0.3-0.1-0.3-0.3C125.8,56.5,126.1,55.5,126.3,54.7z"/>
			<path d="M141.5,48.4c0.4,0,1.3,0.1,1.8,1c0.9-1,0.9-1,1-1c0,0,0.1,0,0.1,0.1s-0.6,2.3-0.7,3c0,0.2-0.1,0.3-0.2,0.3
				c0,0-0.2,0-0.2-0.2c0-0.1,0-0.3,0-0.7c0-1.1-0.5-2.2-1.7-2.2s-2.4,0.9-3,2c-0.6,1-1.1,2.7-1.1,3.6c0,1.8,1.2,2.4,2,2.4
				c1.2,0,2.5-1,3-2.6c0-0.1,0.1-0.3,0.2-0.3c0.1,0,0.3,0,0.3,0.1c0,0.6-1.3,3.1-3.6,3.1c-1.8,0-2.9-1.3-2.9-3.2
				C136.5,51.1,139.1,48.4,141.5,48.4z"/>
			<path d="M145.4,48.7c0.1,0,0.5,0,1.2,0c0.8,0,1.2,0,1.3,0c0.2,0,0.2,0.1,0.2,0.2c0,0.1,0,0.2-0.1,0.2c-0.1,0.1-0.9,0-0.9,0.5
				c0,0.1,0,0.2,0,0.3l0.5,5.4c0,0.2,0,0.3,0,0.5l3.4-5.7c0.2-0.3,0.3-0.5,0.3-0.6c0-0.5-0.6-0.3-0.6-0.6c0-0.1,0.1-0.2,0.2-0.2
				c0.1,0,0.4,0,1,0c0.5,0,0.8,0,0.9,0c0.1,0,0.2,0.1,0.2,0.2c0,0.2-0.2,0.2-0.3,0.2c-0.5,0.1-0.9,0.4-1.2,1l-4,6.7
				c-0.1,0.1-0.2,0.3-0.4,0.3c-0.3,0-0.2-0.2-0.2-0.4l-0.7-7.3c0-0.1,0-0.3-0.3-0.4c-0.3-0.1-0.6,0-0.6-0.2
				C145.2,48.7,145.3,48.7,145.4,48.7z"/>
			<path d="M152.8,56.5L152.8,56.5c0.8,0,0.8-0.3,0.9-0.6l1.6-6.2c0-0.2,0.1-0.3,0.1-0.3c0-0.2-0.1-0.2-0.7-0.2l0,0
				c-0.1,0-0.3,0-0.3-0.2s0.1-0.2,0.3-0.2h3c2,0,2.6,1.1,2.6,1.8c0,0.9-0.8,1.9-2.5,2.4c0.7,0.3,1,0.9,1,1.4c0,0.3-0.2,1.4-0.2,1.9
				c0,0.4,0.1,0.7,0.4,0.7c0.2,0,0.6-0.1,0.9-0.9c0-0.1,0.1-0.3,0.3-0.3c0.1,0,0.2,0,0.2,0.2s-0.4,1.4-1.4,1.4
				c-0.6,0-1.5-0.3-1.5-1.3c0-0.5,0.4-1.4,0.4-1.9s-0.2-1-1.1-1h-1.3c0,0-0.8,3.2-0.8,3.3c0,0.2,0.2,0.2,0.5,0.2h0.1
				c0.2,0,0.4,0,0.4,0.1l0,0c0,0.1-0.1,0.2-0.3,0.2s-0.5,0-1.4,0c-0.8,0-1.2,0-1.3,0s-0.2,0-0.2-0.2
				C152.4,56.5,152.6,56.5,152.8,56.5z M156.5,52.6c2,0,2.4-1.2,2.5-1.8c0-0.2,0.1-0.4,0.1-0.6c0-1.1-1.1-1.1-1.7-1.1h-0.6
				c-0.5,0-0.6,0.1-0.6,0.4c-0.3,1-0.8,3-0.8,3.1C155.4,52.6,156.5,52.6,156.5,52.6z"/>
		</g>
	</g>
</g>
</svg>
